<svg width="4398" height="529" xmlns="http://www.w3.org/2000/svg" xmlns:xlink="http://www.w3.org/1999/xlink" xml:space="preserve" overflow="hidden"><g transform="translate(4 -716)"><path d="M6.99987 1240C41.0464 1219.51 75.0929 1199.03 109.48 1112.53 143.866 1026.03 178.631 722.141 213.32 721.003 248.009 719.865 283 1019.96 317.613 1105.7 352.227 1191.44 386.613 1213.44 421 1235.45" stroke="#2B316F" stroke-width="10.3125" stroke-miterlimit="8" fill="#2B316F" fill-rule="evenodd" fill-opacity="0.2"/><path d="M6.99987 1240C166.295 1229.7 325.59 1219.39 486.476 1175.89 647.363 1132.4 810.017 979.574 972.318 979.001 1134.62 978.429 1298.33 1129.34 1460.28 1172.46 1622.23 1215.58 1783.11 1226.64 1944 1237.71" stroke="#D8006A" stroke-width="10.3125" stroke-miterlimit="8" fill="#D8006A" fill-rule="evenodd" fill-opacity="0.2"/><path d="M-2.00007 1240C69.6291 1223.86 141.258 1207.71 213.603 1139.54 285.948 1071.38 359.088 831.899 432.069 831.002 505.05 830.105 578.667 1066.59 651.488 1134.16 724.31 1201.73 796.655 1219.07 869 1236.41" stroke="#005BBD" stroke-width="10.3125" stroke-miterlimit="8" fill="#005BBD" fill-rule="evenodd" fill-opacity="0.2"/><path d="M6.99987 1240C250.835 1234.55 494.671 1229.11 740.943 1206.11 987.214 1183.11 1236.19 1102.3 1484.63 1102 1733.07 1101.7 1983.67 1181.49 2231.56 1204.29 2479.46 1227.09 2725.73 1232.94 2972 1238.79" stroke="#24B5A5" stroke-width="10.3125" stroke-miterlimit="8" fill="#24B5A5" fill-rule="evenodd" fill-opacity="0.2"/><path d="M0 1240C361.271 1237.2 722.543 1234.39 1087.42 1222.56 1452.3 1210.73 1821.19 1169.16 2189.28 1169 2557.37 1168.84 2928.67 1209.9 3295.95 1221.63 3663.24 1233.36 4028.12 1236.37 4393 1239.38" stroke="#E8CC47" stroke-width="10.3125" stroke-miterlimit="8" fill="#E8CC47" fill-rule="evenodd" fill-opacity="0.2"/></g></svg>