<svg width="2792" height="1637" xmlns="http://www.w3.org/2000/svg" xmlns:xlink="http://www.w3.org/1999/xlink" xml:space="preserve" overflow="hidden"><g transform="translate(-815 -202)"><g><g><g><path d="M1549.8 961.378 1549.8 975.747 1429.18 975.747 1429.18 1008.75C1429.18 1035.97 1426.87 1076.23 1411.99 1102.8 1407.84 1099.61 1403.29 1096.99 1398.44 1095.03 1412.64 1069.97 1413.81 1034.15 1413.81 1008.75L1413.81 961.378ZM1468.47 1064.5C1459.96 1077.11 1450.35 1088.92 1439.73 1099.81 1435.51 1096.68 1431.1 1093.81 1426.53 1091.21 1436.98 1081.93 1446.14 1071.28 1453.75 1059.55ZM1497.65 979.356C1495.35 983.309 1493.04 987.263 1490.78 990.734L1537.46 990.734 1537.46 1052.78 1497 1052.78 1497 1090.22C1497 1097.81 1495.69 1101.77 1490.12 1103.97 1484.55 1106.17 1476.37 1106.1 1464.07 1106.1 1463.08 1101.34 1461.52 1096.73 1459.43 1092.35 1468.02 1092.35 1476.44 1092.35 1478.74 1092.35 1481.05 1092.35 1482.18 1091.52 1482.18 1089.56L1482.18 1052.44 1442.38 1052.44 1442.38 990.597 1473.31 990.597C1475.55 986.151 1477.48 981.557 1479.09 976.847ZM1457.5 1015.83 1521.33 1015.83 1521.33 1002.63 1457.5 1002.63ZM1457.5 1040.58 1521.33 1040.58 1521.33 1027 1457.5 1027ZM1520.68 1059.42C1530.27 1069.73 1543.3 1083.99 1550.07 1092.55L1536.7 1100.49C1527.88 1088.52 1518.4 1077.04 1508.31 1066.12Z" fill="#2B316F"/><path d="M1720.4 1112.22 1713.15 1112.22 1713.15 947.216 1720.4 947.216Z" fill="#2B316F"/><path d="M1987.87 978.875 1899.43 978.875 1899.43 963.544 2004.85 963.544 2008.29 962.684 2020.18 971.794C2004.04 986.985 1985.95 999.967 1966.39 1010.4L1966.39 1025.73 2032.59 1025.73 2032.59 1041.4 1966.42 1041.4 1966.42 1086.78C1966.42 1096.37 1964.12 1100.98 1957 1103.31 1949.89 1105.65 1939.03 1106.27 1923.52 1106.1 1921.94 1100.48 1919.63 1095.09 1916.65 1090.08 1929.37 1090.59 1941.74 1090.59 1945.35 1090.42 1948.96 1090.25 1949.99 1089.43 1949.99 1086.47L1949.99 1041.4 1882.93 1041.4 1882.93 1025.73 1950.09 1025.73 1950.09 1002.15C1963.48 995.756 1976.14 987.954 1987.87 978.875Z" fill="#2B316F"/><path d="M2201.86 1112.22 2194.6 1112.22 2194.6 947.216 2201.86 947.216Z" fill="#2B316F"/><path d="M2466.85 955.603C2465.71 958.729 2464.33 961.763 2462.73 964.678L2512.4 964.678 2512.4 977.225 2484.01 977.225C2486.52 980.134 2488.82 983.225 2490.88 986.472L2480.57 991.078 2496.55 991.078 2496.55 1053.64 2476.75 1053.64 2476.75 1066.15 2513.4 1066.15 2513.4 1078.87 2476.75 1078.87 2476.75 1106.06 2460.77 1106.06 2460.77 1079.01 2419.35 1079.01C2414.88 1089.32 2403.67 1099.29 2377.41 1106.51 2374.64 1102.24 2371.31 1098.35 2367.51 1094.96 2386.35 1090.66 2396.25 1084.89 2401.2 1078.94L2365.21 1078.94 2365.21 1066.22 2406.25 1066.22 2406.25 1053.71 2384.8 1053.71 2384.8 991.147 2402.26 991.147C2400.17 986.342 2397.64 981.739 2394.7 977.397L2388.58 977.397C2384.3 983.619 2379.38 989.379 2373.9 994.585 2369.92 991.312 2365.67 988.39 2361.18 985.853 2372.07 976.856 2380.63 965.357 2386.11 952.338L2400.78 956.325C2399.48 959.109 2398 962.066 2396.49 964.884L2436.77 964.884 2436.6 977.431 2410.86 977.431C2413.06 980.649 2414.88 984.11 2416.29 987.744L2405.98 991.353 2440.62 991.353C2436.76 988.927 2432.73 986.779 2428.56 984.925 2431.45 982.723 2434.11 980.235 2436.5 977.5 2443.21 970.192 2448.47 961.676 2452 952.406ZM2400.51 1008.75 2480.23 1008.75 2480.23 1000.98 2400.51 1000.98ZM2400.51 1026.24 2480.23 1026.24 2480.23 1018.13 2400.51 1018.13ZM2400.51 1043.88 2480.23 1043.88 2480.23 1035.63 2400.51 1035.63ZM2460.77 1053.64 2421.82 1053.64 2421.82 1066.15 2460.77 1066.15ZM2476.75 991.078C2473.78 986.165 2470.32 981.559 2466.44 977.328L2455.2 977.328C2451.78 982.305 2447.85 986.913 2443.48 991.078Z" fill="#2B316F"/><path d="M2683.35 1112.22 2676.06 1112.22 2676.06 947.216 2683.35 947.216Z" fill="#2B316F"/><path d="M2950.48 955.603C2949.25 959.473 2947.82 963.271 2946.18 966.981L2994.06 966.981 2994.06 978.531 2967.32 978.531C2970.05 982.101 2972.43 985.923 2974.43 989.944L2961.41 995.375C2958.45 989.419 2954.91 983.776 2950.82 978.531L2940.27 978.531C2936.91 984.294 2932.92 989.667 2928.37 994.55 2926.02 992.624 2923.54 990.855 2920.95 989.256L2919.47 997.025 2982.34 997.025 2982.34 1008.75 2916.79 1008.75 2915 1016.34 2973.92 1016.34 2973.92 1027.55 2911.36 1027.55 2908.4 1035.46 2994.54 1035.46 2994.54 1047.35 2902.76 1047.35C2900.8 1051.17 2898.64 1054.95 2896.51 1058.42L2946.18 1058.42 2946.18 1049.65 2961.51 1049.65 2961.51 1058.42 2984.61 1058.42 2984.61 1070.45 2961.51 1070.45 2961.51 1091.08C2961.51 1098.19 2960.38 1101.8 2955.43 1103.97 2950.48 1106.13 2943.88 1106.27 2934.8 1106.27 2933.68 1101.58 2932.02 1097.03 2929.85 1092.73 2934.52 1093.03 2939.2 1093.08 2943.88 1092.9 2945.7 1092.9 2946.35 1092.42 2946.35 1090.77L2946.35 1070.45 2909.53 1070.45C2915.9 1075.75 2921.67 1081.73 2926.72 1088.29L2915 1097.68C2910.01 1090.29 2904.13 1083.53 2897.5 1077.57L2907.23 1070.45 2891.56 1070.45 2891.56 1065.67C2882.14 1078.4 2870.18 1089.02 2856.42 1096.85 2852.89 1092.7 2849.03 1088.83 2844.88 1085.3 2861.88 1076.92 2876.09 1063.78 2885.78 1047.49L2846.25 1047.49 2846.25 1035.59 2891.97 1035.59 2895.41 1027.69 2864.81 1027.69 2864.81 1016.34 2899.19 1016.34 2901.15 1008.75 2856.12 1008.75 2856.12 998.847C2852.08 996.38 2847.89 994.175 2843.57 992.247 2855.68 981.308 2864.87 967.52 2870.31 952.131L2884.99 955.775C2883.51 959.556 2881.86 963.372 2880.04 966.981L2919.64 966.981 2919.64 978.531 2895.89 978.531C2897.69 981.96 2899.29 985.496 2900.67 989.119L2886.92 993.381C2885.06 988.242 2882.76 983.273 2880.04 978.531L2873.75 978.531C2869.58 985.062 2864.89 991.247 2859.73 997.025L2903.76 997.025 2905.75 986.3 2918.95 987.95 2915.52 985.956C2925.05 976.618 2931.99 964.962 2935.66 952.131Z" fill="#2B316F"/><path d="M1966.25 433.688 1999.9 433.688 2081.27 660.563 2049.23 660.563 2026.37 591.263 1938.75 591.263 1915.55 660.563 1885.16 660.563ZM2018.84 568.541 2007.5 533.581C1998.67 507.903 1991.14 483.153 1983.44 456.856L1982.13 456.856C1974.6 483.463 1966.77 507.903 1958.27 533.581L1946.52 568.541Z" fill="#2B316F"/><path d="M2115.68 433.688 2186.59 433.688C2234.96 433.688 2268.92 449.156 2268.92 489.031 2268.92 511.616 2256.51 531.416 2233.96 538.222L2233.96 539.769C2262.39 545.028 2282.67 562.972 2282.67 593.91 2282.67 638.597 2245.41 660.425 2191.82 660.425L2115.68 660.425ZM2181.37 529.938C2222.62 529.938 2239.19 516.188 2239.19 492.813 2239.19 466.138 2220.25 456.375 2182.81 456.375L2145.76 456.375 2145.76 529.869ZM2187.56 637.6C2228.81 637.6 2252.87 623.85 2252.87 592.913 2252.87 564.76 2229.67 552.075 2187.56 552.075L2145.76 552.075 2145.76 637.531Z" fill="#2B316F"/><path d="M2379.71 433.688 2413.37 433.688 2494.73 660.563 2462.73 660.563 2439.83 591.263 2352.25 591.263 2329.04 660.563 2298.66 660.563ZM2432.31 568.541 2420.89 533.581C2412.06 507.903 2404.53 483.153 2396.83 456.856L2395.52 456.856C2388.03 483.463 2380.19 507.903 2371.67 533.581L2359.91 568.541Z" fill="#2B316F"/><path d="M2511.4 547.194C2511.4 473.872 2556.81 429.666 2617.62 429.666 2642.39 429.553 2666.12 439.605 2683.28 457.475L2666.95 476.038C2654.26 462.456 2636.52 454.729 2617.93 454.691 2572.83 454.691 2542.31 489.65 2542.31 546.266 2542.31 603.5 2571.08 639.388 2616.8 639.388 2639.69 639.388 2657.02 629.797 2672.38 613.709L2689.02 631.963C2670.56 653.166 2643.63 665.068 2615.52 664.447 2555.85 664.447 2511.4 620.825 2511.4 547.194Z" fill="#2B316F"/><path d="M2728.07 566.994 2728.07 433.688 2758.11 433.688 2758.11 567.75C2758.11 622.2 2782.62 639.525 2814.01 639.525 2845.39 639.525 2870.86 622.338 2870.86 567.75L2870.86 433.688 2899.94 433.688 2899.94 566.994C2899.94 639.697 2862.68 664.447 2814.01 664.447 2765.33 664.447 2728.07 639.697 2728.07 566.994Z" fill="#2B316F"/><path d="M2943.74 631.034 2961.68 611.234C2979.18 628.871 3002.88 638.974 3027.72 639.388 3059.41 639.388 3078.04 624.538 3078.04 602.572 3078.04 579.06 3060.85 571.635 3037.82 562.044L3003.45 547.813C2981.24 538.841 2954.77 522.753 2954.77 489.65 2954.77 454.691 2986.81 429.666 3030.4 429.666 3056.53 429.474 3081.71 439.446 3100.62 457.475L3084.92 475.728C3070.06 462.044 3050.56 454.523 3030.36 454.691 3003.24 454.691 2985.68 467.375 2985.68 487.484 2985.68 509.76 3006.88 518.113 3025.52 525.538L3059.51 539.288C3087.29 550.734 3108.84 566.203 3108.84 599.925 3108.84 635.813 3077.49 664.275 3027.47 664.275 2996.25 664.781 2966.11 652.818 2943.74 631.034Z" fill="#2B316F"/><path d="M1508.51 324.375C1530.88 324.356 1549.02 342.47 1549.04 364.834 1549.06 387.199 1530.95 405.344 1508.58 405.363 1486.22 405.382 1468.07 387.267 1468.05 364.903 1468.05 364.892 1468.05 364.88 1468.05 364.869 1468.03 342.524 1486.13 324.394 1508.48 324.375 1508.49 324.375 1508.5 324.375 1508.51 324.375Z" stroke="#24B5A5" stroke-width="20.8312" stroke-miterlimit="22.93" fill="none"/><path d="M1730.71 660.425C1785.35 660.425 1829.64 704.718 1829.64 759.356 1829.64 813.995 1785.35 858.288 1730.71 858.288 1676.07 858.288 1631.78 813.995 1631.78 759.356 1631.78 704.718 1676.07 660.425 1730.71 660.425Z" stroke="#2B316F" stroke-width="36.1281" stroke-miterlimit="22.93" fill="none"/><path d="M1388.16 671.543C1396.63 707.405 1374.42 743.345 1338.56 751.816 1302.7 760.287 1266.76 738.081 1258.29 702.219 1249.82 666.356 1272.02 630.417 1307.89 621.946 1343.75 613.475 1379.69 635.68 1388.16 671.543Z" stroke="#005BBD" stroke-width="31.2469" stroke-miterlimit="22.92" fill="none"/><path d="M1549.18 579.472C1549.18 607.93 1526.11 631 1497.65 631 1469.19 631 1446.12 607.93 1446.12 579.472 1446.12 551.014 1469.19 527.944 1497.65 527.944 1526.11 527.944 1549.18 551.014 1549.18 579.472Z" stroke="#D8006A" stroke-width="29.8719" stroke-miterlimit="22.93" fill="none"/><path d="M1766.6 536.125C1766.6 558.47 1748.49 576.584 1726.14 576.584 1703.8 576.584 1685.68 558.47 1685.68 536.125 1685.68 513.78 1703.8 495.666 1726.14 495.666 1748.49 495.666 1766.6 513.78 1766.6 536.125Z" stroke="#E8CC47" stroke-width="20.8312" stroke-miterlimit="22.92" fill="none"/><path d="M1680.35 646.984 1536.32 411.859C1534.12 413.184 1531.83 414.333 1529.45 415.297L1661.48 657.194C1667.46 653.24 1673.77 649.823 1680.35 646.984Z" fill="#CCCCCC" fill-rule="evenodd"/><path d="M1670.62 540.869 1566.12 554.894C1568.7 561.872 1570.14 569.219 1570.39 576.653L1672.93 552.9C1671.75 548.979 1670.98 544.947 1670.62 540.869Z" fill="#CCCCCC" fill-rule="evenodd"/><path d="M1646.22 669.5 1559.8 616.116C1556.9 620.952 1553.44 625.428 1549.49 629.453L1622.4 700.163C1628.67 688.75 1636.71 678.401 1646.22 669.5Z" fill="#CCCCCC" fill-rule="evenodd"/><path d="M1478.12 410.588 1355.92 605.253C1363.51 608.311 1370.62 612.419 1377.06 617.456L1483.25 413.475C1481.53 412.581 1479.82 411.619 1478.12 410.588Z" fill="#CCCCCC" fill-rule="evenodd"/></g></g></g><text fill="#2B316F" font-family="Ink Free,Ink Free_MSFontService,sans-serif" font-weight="700" font-size="83" transform="matrix(0.965926 -0.258819 0.258819 0.965926 2383.46 1658)">For higher efficiency and precision </text><text fill="#2B316F" font-family="Ink Free,Ink Free_MSFontService,sans-serif" font-weight="700" font-size="83" transform="matrix(0.965926 -0.258819 0.258819 0.965926 2409.08 1753)">of ABACUS calculation</text><text fill="#2B316F" font-family="Arial,Arial_MSFontService,sans-serif" font-weight="400" font-size="165" transform="matrix(1 0 0 1 1329.6 1342)">Pseudopot</text><text fill="#2B316F" font-family="Arial,Arial_MSFontService,sans-serif" font-weight="400" font-size="165" transform="matrix(1 0 0 1 2117.93 1342)">-</text><text fill="#2B316F" font-family="Arial,Arial_MSFontService,sans-serif" font-weight="400" font-size="165" transform="matrix(1 0 0 1 2172.93 1342)">Nao Square</text><path d="M2462.38 1814.31C2665.26 1736.99 2868.15 1659.67 2889.05 1659.82 2909.96 1659.98 2592.85 1805.62 2587.84 1815.23 2582.83 1824.85 2832.36 1722.07 2859.01 1717.53 2885.66 1712.98 2751.4 1780.8 2747.71 1787.96 2744.03 1795.12 2790.45 1777.81 2836.88 1760.51" stroke="#D8006A" stroke-width="4.58333" stroke-miterlimit="8" fill="none" fill-rule="evenodd"/><path d="M2610.93 1472.5C2534.15 1562.81 2457.38 1653.13 2484.33 1664.31 2511.29 1675.49 2763.56 1564.6 2772.65 1539.58 2781.75 1514.55 2660.33 1514.36 2538.92 1514.16" stroke="#D8006A" stroke-width="4.58333" stroke-miterlimit="8" fill="none" fill-rule="evenodd"/></g></svg>