<svg width="1280" height="720" xmlns="http://www.w3.org/2000/svg" xmlns:xlink="http://www.w3.org/1999/xlink" xml:space="preserve" overflow="hidden"><g><path d="M2.03725 360.891C11.9462 354.928 21.8551 348.967 31.8632 323.792 41.871 298.617 51.989 210.173 62.0849 209.842 72.1809 209.51 82.3647 296.851 92.4385 321.804 102.513 346.758 112.52 353.161 122.528 359.567" stroke="#2B316F" stroke-width="3.00136" stroke-miterlimit="8" fill="#2B316F" fill-rule="evenodd" fill-opacity="0.2" transform="matrix(1 0 0 4.67651 1.16417 -974.518)"/><path d="M2.03725 360.891C48.3987 357.894 94.7602 354.893 141.585 342.233 188.409 329.575 235.748 285.097 282.985 284.93 330.221 284.763 377.868 328.685 425.002 341.234 472.136 353.784 518.959 357.003 565.784 360.225" stroke="#D8006A" stroke-width="3.00136" stroke-miterlimit="8" fill="#D8006A" fill-rule="evenodd" fill-opacity="0.2" transform="matrix(1 0 0 4.67651 1.16417 -974.518)"/><path d="M-0.582103 360.891C20.2649 356.194 41.1119 351.494 62.1673 331.653 83.2227 311.816 104.509 242.117 125.75 241.856 146.99 241.595 168.416 310.422 189.61 330.087 210.804 349.753 231.86 354.8 252.915 359.846" stroke="#005BBD" stroke-width="3.00136" stroke-miterlimit="8" fill="#005BBD" fill-rule="evenodd" fill-opacity="0.2" transform="matrix(1 0 0 4.67651 1.16417 -974.518)"/><path d="M2.03725 360.891C73.0034 359.305 143.97 357.722 215.645 351.028 287.32 344.334 359.782 320.815 432.089 320.728 504.395 320.64 577.33 343.862 649.476 350.498 721.625 357.134 793.3 358.837 864.975 360.539" stroke="#24B5A5" stroke-width="3.00136" stroke-miterlimit="8" fill="#24B5A5" fill-rule="evenodd" fill-opacity="0.2" transform="matrix(1 0 0 4.67651 1.16417 -974.518)"/><path d="M0 360.891C105.145 360.076 210.29 359.259 316.484 355.816 422.679 352.373 530.042 340.274 637.171 340.227 744.301 340.181 852.364 352.131 959.258 355.545 1066.15 358.959 1172.35 359.835 1278.54 360.711" stroke="#E8CC47" stroke-width="3.00136" stroke-miterlimit="8" fill="#E8CC47" fill-rule="evenodd" fill-opacity="0.2" transform="matrix(1 0 0 4.67651 1.16417 -974.518)"/></g></svg>